<svg width="49" height="49" viewBox="0 0 49 49" fill="none" xmlns="http://www.w3.org/2000/svg">
<g clip-path="url(#clip0_45_49)">
<path d="M24.5 0.765625C11.3887 0.765625 0.765625 11.3887 0.765625 24.5C0.765625 37.6113 11.3887 48.2344 24.5 48.2344C37.6113 48.2344 48.2344 37.6113 48.2344 24.5C48.2344 11.3887 37.6113 0.765625 24.5 0.765625ZM24.5 9.95312C29.1512 9.95312 32.9219 13.7238 32.9219 18.375C32.9219 23.0262 29.1512 26.7969 24.5 26.7969C19.8488 26.7969 16.0781 23.0262 16.0781 18.375C16.0781 13.7238 19.8488 9.95312 24.5 9.95312ZM24.5 42.875C18.8822 42.875 13.8482 40.3293 10.4795 36.348C12.2787 32.9602 15.8006 30.625 19.9062 30.625C20.1359 30.625 20.3656 30.6633 20.5857 30.7303C21.8299 31.1322 23.1314 31.3906 24.5 31.3906C25.8686 31.3906 27.1797 31.1322 28.4143 30.7303C28.6344 30.6633 28.8641 30.625 29.0938 30.625C33.1994 30.625 36.7213 32.9602 38.5205 36.348C35.1518 40.3293 30.1178 42.875 24.5 42.875Z" fill="white"/>
</g>
<defs>
<clipPath id="clip0_45_49">
<rect width="49" height="49" fill="white"/>
</clipPath>
</defs>
</svg>
