<svg width="47" height="47" viewBox="0 0 47 47" fill="none" xmlns="http://www.w3.org/2000/svg">
<circle cx="23.5" cy="23.5" r="23.5" fill="white"/>
<path d="M39.6884 33.3682L27.4784 24.1494C29.6884 22.9482 31.1984 20.6729 31.1984 18.0312C31.1984 14.1494 27.9734 11 23.9984 11C20.6435 11 17.8485 13.251 17.0485 16.2832L10.2735 11.166C9.92352 10.9023 9.42352 10.9609 9.14852 11.3027L8.16853 12.5332C7.89853 12.875 7.95853 13.3633 8.30853 13.627L37.7284 35.8291C38.0784 36.0928 38.5784 36.0342 38.8534 35.6924L39.8334 34.457C40.1034 34.125 40.0384 33.6318 39.6884 33.3682ZM17.9185 26.625C14.2085 26.625 11.1985 29.5645 11.1985 33.1875V33.6562C11.1985 34.9502 12.2735 36 13.5985 36H32.7084L20.2885 26.625H17.9185Z" fill="#13262F"/>
</svg>
