<svg width="87" height="59" viewBox="0 0 87 59" fill="none" xmlns="http://www.w3.org/2000/svg">
<path d="M12.2 2.35H0.1V0.249998H26.7V2.35H14.6V36H12.2V2.35ZM34.4086 36V0.399999C37.5753 0.166665 40.2253 0.0499979 42.3586 0.0499979C45.7586 0.0499979 48.5586 0.933332 50.7586 2.7C52.9586 4.43333 54.0586 6.9 54.0586 10.1C54.0586 12.2667 53.4253 14.2833 52.1586 16.15C50.8919 18.0167 49.4753 19.5 47.9086 20.6C49.1419 22.3 50.6586 24.3333 52.4586 26.7C54.2919 29.0333 55.4753 30.5 56.0086 31.1C58.0419 33.2667 60.3419 34.5 62.9086 34.8L62.8586 36.4C60.8253 36.3667 59.1753 36.0667 57.9086 35.5C56.6419 34.9 55.4253 34 54.2586 32.8C53.1253 31.6 50.2753 27.8667 45.7086 21.6C42.4419 21.6 39.4753 21.5 36.8086 21.3V36H34.4086ZM44.2586 19.6C45.7253 19.6 47.2919 18.6333 48.9586 16.7C50.6253 14.7667 51.4586 12.5333 51.4586 10C51.4586 7.43333 50.5919 5.5 48.8586 4.2C47.1586 2.86666 44.8919 2.2 42.0586 2.2C40.5586 2.2 38.8086 2.26666 36.8086 2.4V19.35C39.4753 19.5167 41.9586 19.6 44.2586 19.6ZM71.575 2.35H59.475V0.249998H86.075V2.35H73.975V36H71.575V2.35ZM8.4 58.24C6.32 58.24 4.53333 57.5333 3.04 56.12C1.54667 54.6933 0.8 52.94 0.8 50.86C0.8 48.7667 1.45333 47.0133 2.76 45.6C4.06667 44.1733 5.74 43.46 7.78 43.46C9.38 43.46 11 43.7267 12.64 44.26L12.38 45.06C10.78 44.58 9.24667 44.34 7.78 44.34C6.03333 44.34 4.60667 44.9667 3.5 46.22C2.39333 47.4733 1.84 49.0067 1.84 50.82C1.84 52.6333 2.48 54.18 3.76 55.46C5.05333 56.7267 6.6 57.36 8.4 57.36C9.97333 57.36 11.3333 57.12 12.48 56.64L12.78 57.32C12.2733 57.6133 11.6067 57.84 10.78 58C9.96667 58.16 9.17333 58.24 8.4 58.24ZM17.3698 56.1C16.0498 54.6733 15.3898 52.92 15.3898 50.84C15.3898 48.76 16.0498 47.0133 17.3698 45.6C18.7032 44.1733 20.3832 43.46 22.4098 43.46C24.4365 43.46 26.1165 44.1733 27.4498 45.6C28.7832 47.0133 29.4498 48.76 29.4498 50.84C29.4498 52.92 28.7832 54.6733 27.4498 56.1C26.1165 57.5267 24.4365 58.24 22.4098 58.24C20.3832 58.24 18.7032 57.5267 17.3698 56.1ZM18.0898 46.22C16.9832 47.46 16.4298 49 16.4298 50.84C16.4298 52.68 16.9832 54.2267 18.0898 55.48C19.2098 56.7333 20.6498 57.36 22.4098 57.36C24.1832 57.36 25.6232 56.7333 26.7298 55.48C27.8498 54.2267 28.4098 52.68 28.4098 50.84C28.4098 49 27.8498 47.46 26.7298 46.22C25.6232 44.9667 24.1832 44.34 22.4098 44.34C20.6365 44.34 19.1965 44.9667 18.0898 46.22ZM34.8061 45.98L34.8461 47.68V58H33.8861V43.58H34.3261L43.7461 54.44C44.3861 55.2 44.8794 55.8067 45.2261 56.26C45.1728 55.62 45.1461 54.8867 45.1461 54.06V43.7H46.1061V58.12H45.6661L36.0661 47.06C35.3994 46.3 34.9728 45.7933 34.7861 45.54L34.8061 45.98ZM57.5661 44.96C56.5928 44.5467 55.6261 44.34 54.6661 44.34C52.7194 44.34 51.7461 45.06 51.7461 46.5C51.7461 47.1267 51.9661 47.7133 52.4061 48.26C52.8461 48.7933 53.3794 49.2733 54.0061 49.7C54.6328 50.1133 55.2594 50.54 55.8861 50.98C56.5128 51.42 57.0461 51.9467 57.4861 52.56C57.9261 53.1733 58.1461 53.84 58.1461 54.56C58.1461 55.7733 57.7394 56.6933 56.9261 57.32C56.1128 57.9333 54.9861 58.24 53.5461 58.24C52.1194 58.24 50.8994 57.8733 49.8861 57.14L50.3661 56.42C51.3261 57.0467 52.3794 57.36 53.5261 57.36C54.6728 57.36 55.5528 57.1333 56.1661 56.68C56.7794 56.2133 57.0861 55.5467 57.0861 54.68C57.0861 54.08 56.8661 53.5133 56.4261 52.98C55.9861 52.4333 55.4528 51.9467 54.8261 51.52C54.1994 51.08 53.5728 50.6333 52.9461 50.18C52.3194 49.7267 51.7861 49.1867 51.3461 48.56C50.9061 47.9333 50.6861 47.26 50.6861 46.54C50.6861 45.5933 51.0328 44.8467 51.7261 44.3C52.4328 43.74 53.3794 43.46 54.5661 43.46C55.7661 43.46 56.8794 43.7 57.9061 44.18L57.5661 44.96ZM62.3236 58V43.7H68.9636V44.54H63.2836V49.8H68.4236V50.62H63.2836V57.16H69.1836V58H62.3236ZM73.0267 58V43.7H73.9867V58H73.0267ZM79.2572 58V43.7H80.2172V57.12H86.7972V58H79.2572Z" fill="white"/>
</svg>
